<mxfile host="app.diagrams.net" modified="2023-05-07T12:36:24.692Z" agent="Mozilla/5.0 (Windows NT 10.0; Win64; x64) AppleWebKit/537.36 (KHTML, like Gecko) Chrome/111.0.0.0 Safari/537.36 OPR/97.0.0.0" etag="cYXmQrVXSl5opCzU9q6B" version="21.2.9" type="github">
  <diagram id="R2lEEEUBdFMjLlhIrx00" name="Page-1">
    <mxGraphModel dx="1393" dy="758" grid="1" gridSize="10" guides="1" tooltips="1" connect="1" arrows="1" fold="1" page="1" pageScale="1" pageWidth="800" pageHeight="800" math="0" shadow="0" extFonts="Permanent Marker^https://fonts.googleapis.com/css?family=Permanent+Marker">
      <root>
        <mxCell id="0" />
        <mxCell id="1" parent="0" />
        <mxCell id="KxgXaDG1DJFcyEZFzMEs-33" value="" style="edgeStyle=orthogonalEdgeStyle;rounded=0;orthogonalLoop=1;jettySize=auto;html=1;shape=flexArrow;startArrow=none;startFill=0;dashed=1;exitX=0;exitY=0.5;exitDx=0;exitDy=0;" parent="1" source="KxgXaDG1DJFcyEZFzMEs-27" target="KxgXaDG1DJFcyEZFzMEs-31" edge="1">
          <mxGeometry relative="1" as="geometry" />
        </mxCell>
        <mxCell id="KxgXaDG1DJFcyEZFzMEs-27" value="get_playlist()&lt;br&gt;[POST/OPTIONS: /playlist]" style="rounded=1;whiteSpace=wrap;html=1;fillColor=#f8cecc;strokeColor=#b85450;" parent="1" vertex="1">
          <mxGeometry x="480" y="640" width="200" height="80" as="geometry" />
        </mxCell>
        <mxCell id="KxgXaDG1DJFcyEZFzMEs-39" value="Tags Python" style="swimlane;whiteSpace=wrap;html=1;" parent="1" vertex="1">
          <mxGeometry x="20" y="10" width="760" height="590" as="geometry">
            <mxRectangle x="20" y="10" width="150" height="30" as="alternateBounds" />
          </mxGeometry>
        </mxCell>
        <mxCell id="HBssad15t7mIBAsWwdoE-4" value="" style="edgeStyle=orthogonalEdgeStyle;rounded=0;orthogonalLoop=1;jettySize=auto;html=1;entryX=0.5;entryY=1;entryDx=0;entryDy=0;shape=flexArrow;exitX=0.25;exitY=0;exitDx=0;exitDy=0;" edge="1" parent="KxgXaDG1DJFcyEZFzMEs-39" source="KxgXaDG1DJFcyEZFzMEs-31" target="HBssad15t7mIBAsWwdoE-1">
          <mxGeometry relative="1" as="geometry">
            <mxPoint x="100" y="450" as="targetPoint" />
          </mxGeometry>
        </mxCell>
        <mxCell id="KxgXaDG1DJFcyEZFzMEs-31" value="calc_similarity(prompt, keywords)" style="rounded=1;whiteSpace=wrap;html=1;fillColor=#dae8fc;strokeColor=#6c8ebf;" parent="KxgXaDG1DJFcyEZFzMEs-39" vertex="1">
          <mxGeometry x="260" y="390" width="240" height="120" as="geometry" />
        </mxCell>
        <mxCell id="HBssad15t7mIBAsWwdoE-1" value="encode_with_model(text: str)" style="rounded=1;whiteSpace=wrap;html=1;fillColor=#dae8fc;strokeColor=#6c8ebf;" vertex="1" parent="KxgXaDG1DJFcyEZFzMEs-39">
          <mxGeometry x="60" y="70" width="240" height="120" as="geometry" />
        </mxCell>
        <mxCell id="HBssad15t7mIBAsWwdoE-2" value="cosine_similarity(a: tensor, b: tensor)" style="rounded=1;whiteSpace=wrap;html=1;fillColor=#dae8fc;strokeColor=#6c8ebf;" vertex="1" parent="KxgXaDG1DJFcyEZFzMEs-39">
          <mxGeometry x="460" y="70" width="240" height="120" as="geometry" />
        </mxCell>
        <mxCell id="HBssad15t7mIBAsWwdoE-5" value="" style="edgeStyle=orthogonalEdgeStyle;rounded=0;orthogonalLoop=1;jettySize=auto;html=1;entryX=0.5;entryY=1;entryDx=0;entryDy=0;shape=flexArrow;exitX=0.75;exitY=0;exitDx=0;exitDy=0;" edge="1" parent="KxgXaDG1DJFcyEZFzMEs-39" source="KxgXaDG1DJFcyEZFzMEs-31" target="HBssad15t7mIBAsWwdoE-2">
          <mxGeometry relative="1" as="geometry">
            <mxPoint x="390" y="400" as="sourcePoint" />
            <mxPoint x="190" y="200" as="targetPoint" />
          </mxGeometry>
        </mxCell>
      </root>
    </mxGraphModel>
  </diagram>
</mxfile>
